<svg width="178" height="103" viewBox="0 0 178 103" fill="none" xmlns="http://www.w3.org/2000/svg">
<g id="Logo" clip-path="url(#clip0_3623_13321)">
<g id="Logo_2">
<path id="Vector" fill-rule="evenodd" clip-rule="evenodd" d="M105.303 45.1728V30.2843L77.6926 46.3681L71.7519 42.934L105.303 23.3527L105.271 23.3346L111.223 19.8937L111.255 19.9096V48.6137L86.4318 62.9658L80.4911 59.5317L80.5024 59.5249L61.6089 48.6137V18.8275L86.4318 4.47766L105.359 15.4206L105.332 15.4364L108.327 17.1682L80.1543 33.5282L80.1204 26.6781L96.5297 17.1976L86.4318 11.3617L67.5609 22.2706V45.1728L86.4544 56.0818L105.303 45.1728Z" fill="#CA2026"/>
<path id="Vector_2" fill-rule="evenodd" clip-rule="evenodd" d="M25.4675 90.1398C25.4675 91.7742 24.9136 93.0419 23.8195 93.9406C22.6237 94.9027 20.9374 95.3871 18.7582 95.3871H3.06104V72.4509H18.7582C23.2024 72.4509 25.42 74.1872 25.42 77.6507V79.5364C25.42 80.6638 25.2392 81.5081 24.8888 82.056C24.4977 82.7758 23.6545 83.4006 22.3751 83.9326C22.7119 84.0888 23.2115 84.3084 23.8602 84.5981C24.6876 85.1211 25.1872 85.9903 25.3748 87.2105C25.4381 87.5433 25.4675 88.5212 25.4675 90.1398ZM20.9532 79.919V78.2053C20.9532 76.5709 19.7031 75.7492 17.2052 75.7492H7.66122V82.2801H17.3612C19.7596 82.2801 20.9532 81.4991 20.9532 79.919ZM20.9148 89.5467V88.0141C20.9148 86.4114 19.7438 85.6055 17.4087 85.6055H7.61601V92.0662H17.4087C19.7438 92.0639 20.9148 91.2286 20.9148 89.5467Z" fill="#203E8E"/>
<path id="Vector_3" fill-rule="evenodd" clip-rule="evenodd" d="M50.0147 91.0792C50.0147 92.3627 49.5061 93.4018 48.5001 94.2009C47.4851 94.9909 46.0949 95.3893 44.3453 95.3893H36.6527C34.8261 95.3893 33.3658 95.0452 32.2627 94.3571C31.0759 93.6055 30.4746 92.5664 30.4746 91.2218V88.1725C30.4746 86.7803 31.0058 85.7164 32.0683 84.9671C33.1307 84.2155 34.582 83.8397 36.4266 83.8397H46.0407C46.009 82.8776 45.8146 82.1895 45.462 81.782C45.0392 81.3044 44.1961 81.0712 42.9482 81.0712H30.5695V78.1147H43.4953C47.8446 78.1147 50.0169 79.5681 50.0169 82.4951V91.0792H50.0147ZM45.9932 90.5087V87.1855C45.9932 86.803 45.6812 86.6151 45.0551 86.6151H37.3625C35.4568 86.6151 34.5051 87.3349 34.5051 88.7656V90.4634C34.5051 91.0882 34.7855 91.5659 35.3483 91.8941C35.918 92.2223 36.6052 92.3876 37.4099 92.3876H43.1743C45.0551 92.3853 45.9932 91.7605 45.9932 90.5087Z" fill="#203E8E"/>
<path id="Vector_4" fill-rule="evenodd" clip-rule="evenodd" d="M69.3285 95.3418V84.4147C69.3285 82.6558 68.2028 81.7798 65.9468 81.7798H61.4641C59.1764 81.7798 58.0281 82.6558 58.0281 84.4147V95.3395H53.9976V83.3825C53.9976 79.8714 56.0433 78.1102 60.1372 78.1102H67.2285C71.2816 78.1102 73.3116 79.8692 73.3116 83.3825V95.3395H69.3285V95.3418Z" fill="#203E8E"/>
<path id="Vector_5" fill-rule="evenodd" clip-rule="evenodd" d="M96.679 95.3893H91.7126L83.1293 87.756C82.6614 87.3643 82.4195 86.9818 82.4195 86.615C82.4195 86.2166 82.693 85.7775 83.2243 85.2862L91.3238 78.2075H96.15L86.7462 86.615L96.679 95.3893ZM82.1912 95.3893H78.1606V72.4033H82.1912V95.3893Z" fill="#203E8E"/>
<path id="Vector_6" fill-rule="evenodd" clip-rule="evenodd" d="M121.866 81.8499C121.866 83.3756 121.264 84.58 120.062 85.456C118.859 86.3321 117.211 86.769 115.118 86.769H103.974V95.387H99.4209V72.4033H114.892C116.89 72.4033 118.516 72.7791 119.766 73.5307C121.108 74.3592 121.796 75.4865 121.827 76.924C121.85 78.4633 121.866 80.1068 121.866 81.8499ZM117.311 80.7701V78.04C117.311 76.4984 116.099 75.7242 113.68 75.7242H103.974V83.3575H113.563C116.063 83.3598 117.311 82.4996 117.311 80.7701Z" fill="#CA2026"/>
<path id="Vector_7" fill-rule="evenodd" clip-rule="evenodd" d="M140.35 95.3418H132.938C131.048 95.3418 129.565 94.8732 128.503 93.9179C127.277 92.8539 126.667 91.4617 126.667 89.7504L126.69 78.16H130.695V88.7181C130.695 90.674 131.742 91.6519 133.826 91.6519H141.058C141.745 91.6519 142.088 91.2852 142.088 90.5336V78.2076H146.119V97.1732C146.119 98.8868 145.588 100.286 144.525 101.372C143.463 102.452 142.012 103 140.167 103H127.519V99.1675H139.046C140.388 99.1675 141.272 98.8076 141.702 98.0968C141.96 97.6191 142.093 96.7046 142.093 95.3441V94.8664L140.35 95.3418Z" fill="#CA2026"/>
<path id="Vector_8" fill-rule="evenodd" clip-rule="evenodd" d="M160.806 82.0898L164.49 78.1124H169.231L162.196 85.8023L160.806 82.0898Z" fill="#203E8E"/>
<path id="Vector_9" fill-rule="evenodd" clip-rule="evenodd" d="M169.703 95.3893H164.974L159.25 89.3813L153.533 95.3893H148.746L157.033 86.5199L149.277 78.1124H153.859L161.554 86.5018L161.538 86.5199L163.525 88.6524L169.703 95.3893Z" fill="#CA2026"/>
</g>
</g>
<defs>
<clipPath id="clip0_3623_13321">
<rect width="177" height="103" fill="white" transform="translate(0.5)"/>
</clipPath>
</defs>
</svg>
